<svg version="1.1" id="Layer_1" xmlns="http://www.w3.org/2000/svg" xmlns:xlink="http://www.w3.org/1999/xlink" x="0px" y="0px"
	 viewBox="0 0 512 512" style="enable-background:new 0 0 512 512;" xml:space="preserve" fill="#d31f34">
		<path d="M469.3,106.7c0-35.3-28.7-64-64-64s-64,28.7-64,64s28.7,64,64,64C440.6,170.7,469.3,142,469.3,106.7z M405.3,128
			c-11.8,0-21.3-9.6-21.3-21.3c0-11.8,9.6-21.3,21.3-21.3c11.8,0,21.3,9.6,21.3,21.3C426.7,118.4,417.1,128,405.3,128z"/>
		<path d="M405.3,170.7c-58.8,0-106.7,47.9-106.7,106.7v64c0,11.8,9.5,21.3,21.3,21.3h21.3V448c0,11.8,9.5,21.3,21.3,21.3H448
			c11.8,0,21.3-9.6,21.3-21.3v-85.3h21.3c11.8,0,21.3-9.6,21.3-21.3v-64C512,218.5,464.1,170.7,405.3,170.7z M469.3,320H448
			c-11.8,0-21.3,9.6-21.3,21.3v85.3H384v-85.3c0-11.8-9.5-21.3-21.3-21.3h-21.3v-42.7c0-35.3,28.7-64,64-64s64,28.7,64,64
			L469.3,320L469.3,320z"/>
		<path d="M128,341.3c11.8,0,21.3-9.6,21.3-21.3V192c0-11.8-9.5-21.3-21.3-21.3H21.3C9.5,170.7,0,180.2,0,192v128
			c0,11.8,9.5,21.3,21.3,21.3H128z M42.7,213.3h64v85.3h-64V213.3z"/>
		<circle cx="213.3" cy="426.7" r="42.7"/>
		<path d="M192.1,126.2l-19.7,236.4h-151v42.7h131.9c8.9-24.8,32.3-42.7,60.1-42.7c0.6,0,1.2,0.2,1.8,0.2L233,149.3h44.4v-42.7h-64
			C202.2,106.7,193,115.2,192.1,126.2z"/>
</svg>
