<svg version="1.1" id="Layer_1" xmlns="http://www.w3.org/2000/svg" xmlns:xlink="http://www.w3.org/1999/xlink" x="0px" y="0px"
	 viewBox="0 0 426.7 426.7" style="enable-background:new 0 0 426.7 426.7;" xml:space="preserve" fill="#d31f34">
	<rect x="146.2" y="213.3" width="64" height="42.7"/>
	<path d="M103.5,320h85.3v-42.7h-64v-128h128v64h42.7V128V21.3C295.5,9.6,286,0,274.2,0h-128c-11.8,0-21.3,9.6-21.3,21.3v85.3
		h-21.3c-11.8,0-21.3,9.6-21.3,21.3v170.7C82.2,310.5,91.7,320,103.5,320z M167.5,42.7h85.3v64h-85.3L167.5,42.7L167.5,42.7z"/>
	<path d="M402.2,42.7V0h-64c-11.8,0-21.3,9.6-21.3,21.3V256c-47,0-85.3,38.3-85.3,85.3H82.2c-5.7,0-11.1,2.2-15.1,6.3l-42.7,42.7
		l30.2,30.2L91,384h152.4c14.8,25.4,42,42.7,73.5,42.7c47,0,85.3-38.3,85.3-85.3c0-31.4-17.3-58.7-42.7-73.5V42.7H402.2z
		 M316.9,384c-23.6,0-42.7-19.1-42.7-42.7s19.1-42.7,42.7-42.7s42.7,19.1,42.7,42.7C359.5,364.9,340.4,384,316.9,384z"/>

</svg>
