<svg version="1.1" id="Layer_1" xmlns="http://www.w3.org/2000/svg" xmlns:xlink="http://www.w3.org/1999/xlink" x="0px" y="0px"
	 viewBox="0 0 512 512" style="enable-background:new 0 0 512 512;" xml:space="preserve" fill="#d31f34">
			<path d="M384,192V64c0-7.1-3.5-13.7-9.4-17.7C371.1,44,267.9,3.1,263.9,1.5c-5.1-2-10.8-2-15.8,0C244.2,3.1,140.9,44,137.4,46.3
				c-5.9,4-9.4,10.6-9.4,17.7v128c0,8.7,5.3,16.6,13.4,19.8l106.7,42.7c2.5,1,5.2,1.5,7.9,1.5c2.7,0,5.4-0.5,7.9-1.5l106.7-42.7
				C378.7,208.5,384,200.7,384,192z M234.7,203.1l-64-25.6v-82l64,25.6V203.1z M256,83.7L206.8,64L256,44.3L305.2,64L256,83.7z
				 M341.3,177.5l-64,25.6v-82l64-25.6V177.5z"/>
			<path d="M490.7,106.7H448c-9.2,0-17.3,5.9-20.2,14.6l-53.1,159.3l-18.2-18.3c-8.3-8.3-21.8-8.3-30.2,0l-42.7,42.7
				c-6,6-7.9,15.1-4.7,23l31.9,79.7c-7.1,3.4-12.1,10.6-12.1,19v64c0,11.8,9.5,21.3,21.3,21.3h149.3c11.8,0,21.3-9.6,21.3-21.3v-64
				c0-7.5-4.1-13.8-10-17.6l29.1-58.2c1.5-2.9,2.3-6.2,2.3-9.5V128C512,116.2,502.5,106.7,490.7,106.7z M448,469.3H341.3V448H448
				V469.3z M469.3,336.3l-34.5,69h-79l-32.1-80.2l17.6-17.6l27.6,27.6c5.2,5.2,12.8,7.4,20,5.7c7.2-1.7,13-7,15.3-14l59.1-177.4h6
				L469.3,336.3L469.3,336.3z"/>
			<path d="M185.7,262.3c-8.3-8.3-21.8-8.3-30.2,0l-18.2,18.3L84.2,121.3c-2.9-8.7-11.1-14.6-20.2-14.6H21.3
				C9.5,106.7,0,116.2,0,128v213.3c0,3.3,0.8,6.6,2.2,9.6l29.1,58.2c-5.9,3.8-10,10.1-10,17.6v64c0,11.8,9.5,21.3,21.3,21.3H192
				c11.8,0,21.3-9.6,21.3-21.3v-64c0-8.4-5-15.6-12.1-19l31.9-79.7c3.2-7.9,1.3-17-4.7-23L185.7,262.3z M170.7,469.3H64V448h106.7
				L170.7,469.3L170.7,469.3z M156.2,405.3h-79l-34.5-69v-187h6l59.1,177.4c2.3,7,8.2,12.3,15.3,14c7.2,1.7,14.8-0.4,20-5.7
				l27.6-27.6l17.6,17.6L156.2,405.3z"/>
</svg>
