<svg version="1.1" id="Layer_1" xmlns="http://www.w3.org/2000/svg" xmlns:xlink="http://www.w3.org/1999/xlink" x="0px" y="0px"
	 viewBox="0 0 426.7 426.7" style="enable-background:new 0 0 426.7 426.7;" xml:space="preserve" fill="#d31f34">
		<polygon points="362.7,224 362.7,10.7 277.3,10.7 277.3,224 320,181.3 			"/>
		<path d="M405.3,53.3H384v277.3H256c-5.7,0-11.1,2.2-15.1,6.3l-6.3,6.3v-217l21.3-21.3V53.3c-5.7,0-11.1,2.2-15.1,6.3l-27.6,27.6
			l-27.6-27.6c-4-4-9.4-6.3-15.1-6.3H21.3C9.5,53.3,0,62.9,0,74.7V352c0,11.8,9.5,21.3,21.3,21.3h140.5l36.4,36.4
			c4.2,4.2,9.6,6.3,15.1,6.3s10.9-2.1,15.1-6.3l36.4-36.4h140.5c11.8,0,21.3-9.6,21.3-21.3V74.7C426.7,62.9,417.1,53.3,405.3,53.3z
			 M192,343.2l-6.3-6.3c-4-4-9.4-6.3-15.1-6.3h-128V96h119.2l30.2,30.2V343.2z"/>
		<rect x="106.7" y="117.3" width="64" height="42.7"/>
		<rect x="64" y="181.3" width="106.7" height="42.7"/>
		<rect x="64" y="245.3" width="106.7" height="42.7"/>
</svg>
