<svg version="1.1" id="Layer_1" xmlns="http://www.w3.org/2000/svg" xmlns:xlink="http://www.w3.org/1999/xlink" x="0px" y="0px"
	 viewBox="0 0 100 125" style="enable-background:new 0 0 100 125;" xml:space="preserve" fill="#d31f34">
	<path d="M48.9,1c-1.7,0-3.2,1.3-3.4,3L44,14.4h-4.1c-1.6,0-3.1,1.2-3.4,2.8L35,24.4h-4.7c-1.7,0-3.1,1.2-3.4,2.9l-2.5,14.2L46.2,31
	c2.2-1.1,4.7-1.1,6.9,0l22.4,10.8L73,27.3c-0.3-1.7-1.7-2.9-3.4-2.9h-4.7l-1.5-7.2c-0.3-1.6-1.7-2.8-3.4-2.8h-4L54.5,4
	c-0.2-1.7-1.7-3-3.4-3H48.9z"/>
	<path d="M12.8,61l8.6,18.3c3.5-2.4,7.6-3.6,11.8-3.5c4.5-0.1,8.8,1.3,12.4,3.9c1.7,1.1,2.4,1.6,4.3,1.6H50c2,0,2.7-0.5,4.3-1.5
	c3.6-2.6,8-4,12.4-3.9c4.2-0.1,8.3,1.2,11.8,3.5L87.2,61c1.1-2.2,0.1-4.9-2.1-6L51.8,39c-1.1-0.5-2.4-0.5-3.5,0L14.9,55
	C12.7,56.1,11.7,58.8,12.8,61z"/>
	<path d="M8.2,87.5c-2.7,0-4.8,2.2-4.8,4.8c0,0.4,0.1,0.9,0.2,1.3C4,95,4.9,96.1,6.2,96.7c3.2,1.5,6.7,2.3,10.3,2.3
	c5,0.1,10-1.5,14.1-4.4c1.6-1,1.6-1.1,2.7-1.1s1.2,0,2.8,1.1c4.1,2.9,9,4.5,14,4.4c5,0.1,10-1.5,14.1-4.4c1.6-1,1.6-1.1,2.7-1.1
	s1.2,0,2.8,1.1c7.2,5,16.4,5.8,24.4,2.2c2.4-1.2,3.4-4.1,2.3-6.5c-0.1-0.2-0.2-0.4-0.3-0.5c-0.9-1.4-2.4-2.2-4.1-2.2
	c-0.7,0-1.5,0.1-2.2,0.4c-1.9,0.9-4,1.3-6.1,1.3c-3.2,0-6.2-1-8.8-2.8c-4.8-3.5-11.3-3.5-16.1,0c-2.5,1.9-5.6,2.9-8.7,2.8H50
	c-3.1,0-6.2-1-8.7-2.8c-2.3-1.8-5.1-2.7-8-2.6c-2.9-0.1-5.7,0.9-8,2.6c-2.5,1.9-5.6,2.9-8.7,2.8c-2.1,0.1-4.2-0.4-6.1-1.3
	C9.6,87.7,8.9,87.5,8.2,87.5z"/>
</svg>
