<svg version="1.1" xmlns="http://www.w3.org/2000/svg" xmlns:xlink="http://www.w3.org/1999/xlink" x="0px" y="0px"
	 viewBox="0 0 220 50" style="enable-background:new 0 0 220 50;" xml:space="preserve" width="220" height="50">
<style type="text/css">
	.st0{display:none;}
	<!-- .st1{fill:#D31F34;} -->
	.st1{fill:#FFFFFF;}
	.sq{
	background: #fff;
}

.sq1{
	opacity: 1;
}
.sq2{
	opacity: 0.8;
}

</style>
<g id="N3t7bk.tif" class="st0">
	
		<image style="display:inline;overflow:visible;enable-background:new    ;" width="482" height="223" id="Layer_1_1_" xlink:href="../../gcargo/svg/4EB413056E1FC0B0.png"  transform="matrix(2.9996 0 0 2.9996 -293.4644 -296.9292)">
	</image>
</g>
<g>
	<rect x="1" y="1" class="st1" width="218" height="48"/>
	<path class="st2" d="M218,2v46H2V2H218 M220,0H0v50h220V0L220,0z"/>
</g>
<rect x="0" width="10" height="10" class="sq sq1"/>
<rect x="0" y="10" width="10" height="10" class="sq sq2"/>
<rect x="0" y="20" class="st1" width="10" height="10"/>
<rect x="0" y="30" class="st1" width="10" height="10"/>
<rect x="0" y="40" class="st1" width="10" height="10"/>
<rect x="10" class="st1" width="10" height="10"/>
<rect x="10" y="10" class="st1" width="10" height="10"/>
<rect x="10" y="20" class="st1" width="10" height="10"/>
<rect x="10" y="30" class="st1" width="10" height="10"/>
<rect x="10" y="40" class="st1" width="10" height="10"/>
<rect x="20" class="st1" width="10" height="10"/>
<rect x="20" y="10" class="st1" width="10" height="10"/>
<rect x="20" y="20" class="st1" width="10" height="10"/>
<rect x="20" y="30" class="st1" width="10" height="10"/>
<rect x="20" y="40" class="st1" width="10" height="10"/>
<rect x="30" class="st1" width="10" height="10"/>
<rect x="30" y="10" class="st1" width="10" height="10"/>
<rect x="30" y="20" class="st1" width="10" height="10"/>
<rect x="30" y="30" class="st1" width="10" height="10"/>
<rect x="30" y="40" class="st1" width="10" height="10"/>
<rect x="40" class="st1" width="10" height="10"/>
<rect x="40" y="10" class="st1" width="10" height="10"/>
<rect x="40" y="20" class="st1" width="10" height="10"/>
<rect x="40" y="30" class="st1" width="10" height="10"/>
<rect x="40" y="40" class="st1" width="10" height="10"/>
<rect x="50" class="st1" width="10" height="10"/>
<rect x="50" y="10" class="st1" width="10" height="10"/>
<rect x="50" y="20" class="st1" width="10" height="10"/>
<rect x="50" y="30" class="st1" width="10" height="10"/>
<rect x="50" y="40" class="st1" width="10" height="10"/>
<rect x="60" class="st1" width="10" height="10"/>
<rect x="60" y="10" class="st1" width="10" height="10"/>
<rect x="60" y="20" class="st1" width="10" height="10"/>
<rect x="60" y="30" class="st1" width="10" height="10"/>
<rect x="60" y="40" class="st1" width="10" height="10"/>
<rect x="70" class="st1" width="10" height="10"/>
<rect x="70" y="10" class="st1" width="10" height="10"/>
<rect x="70" y="20" class="st1" width="10" height="10"/>
<rect x="70" y="30" class="st1" width="10" height="10"/>
<rect x="70" y="40" class="st1" width="10" height="10"/>
<rect x="80" class="st1" width="10" height="10"/>
<rect x="80" y="10" class="st1" width="10" height="10"/>
<rect x="80" y="20" class="st1" width="10" height="10"/>
<rect x="80" y="30" class="st1" width="10" height="10"/>
<rect x="80" y="40" class="st1" width="10" height="10"/>
<rect x="90" class="st1" width="10" height="10"/>
<rect x="90" y="10" class="st1" width="10" height="10"/>
<rect x="90" y="20" class="st1" width="10" height="10"/>
<rect x="90" y="30" class="st1" width="10" height="10"/>
<rect x="90" y="40" class="st1" width="10" height="10"/>
<rect x="100" class="st1" width="10" height="10"/>
<rect x="100" y="10" class="st1" width="10" height="10"/>
<rect x="100" y="20" class="st1" width="10" height="10"/>
<rect x="100" y="30" class="st1" width="10" height="10"/>
<rect x="100" y="40" class="st1" width="10" height="10"/>
<rect x="110" class="st1" width="10" height="10"/>
<rect x="110" y="10" class="st1" width="10" height="10"/>
<rect x="110" y="20" class="st1" width="10" height="10"/>
<rect x="110" y="30" class="st1" width="10" height="10"/>
<rect x="110" y="40" class="st1" width="10" height="10"/>
<rect x="120" class="st1" width="10" height="10"/>
<rect x="120" y="10" class="st1" width="10" height="10"/>
<rect x="120" y="20" class="st1" width="10" height="10"/>
<rect x="120" y="30" class="st1" width="10" height="10"/>
<rect x="120" y="40" class="st1" width="10" height="10"/>
<rect x="130" class="st1" width="10" height="10"/>
<rect x="130" y="10" class="st1" width="10" height="10"/>
<rect x="130" y="20" class="st1" width="10" height="10"/>
<rect x="130" y="30" class="st1" width="10" height="10"/>
<rect x="130" y="40" class="st1" width="10" height="10"/>
<rect x="140" class="st1" width="10" height="10"/>
<rect x="140" y="10" class="st1" width="10" height="10"/>
<rect x="140" y="20" class="st1" width="10" height="10"/>
<rect x="140" y="30" class="st1" width="10" height="10"/>
<rect x="140" y="40" class="st1" width="10" height="10"/>
<rect x="150" class="st1" width="10" height="10"/>
<rect x="150" y="10" class="st1" width="10" height="10"/>
<rect x="150" y="20" class="st1" width="10" height="10"/>
<rect x="150" y="30" class="st1" width="10" height="10"/>
<rect x="150" y="40" class="st1" width="10" height="10"/>
<rect x="160" class="st1" width="10" height="10"/>
<rect x="160" y="10" class="st1" width="10" height="10"/>
<rect x="160" y="20" class="st1" width="10" height="10"/>
<rect x="160" y="30" class="st1" width="10" height="10"/>
<rect x="160" y="40" class="st1" width="10" height="10"/>
<rect x="170" class="st1" width="10" height="10"/>
<rect x="170" y="10" class="st1" width="10" height="10"/>
<rect x="170" y="20" class="st1" width="10" height="10"/>
<rect x="170" y="30" class="st1" width="10" height="10"/>
<rect x="170" y="40" class="st1" width="10" height="10"/>
<rect x="180" class="st1" width="10" height="10"/>
<rect x="180" y="10" class="st1" width="10" height="10"/>
<rect x="180" y="20" class="st1" width="10" height="10"/>
<rect x="180" y="30" class="st1" width="10" height="10"/>
<rect x="180" y="40" class="st1" width="10" height="10"/>
<rect x="190" class="st1" width="10" height="10"/>
<rect x="190" y="10" class="st1" width="10" height="10"/>
<rect x="190" y="20" class="st1" width="10" height="10"/>
<rect x="190" y="30" class="st1" width="10" height="10"/>
<rect x="190" y="40" class="st1" width="10" height="10"/>
<rect x="200" class="st1" width="10" height="10"/>
<rect x="200" y="10" class="st1" width="10" height="10"/>
<rect x="200" y="20" class="st1" width="10" height="10"/>
<rect x="200" y="30" class="st1" width="10" height="10"/>
<rect x="200" y="40" class="st1" width="10" height="10"/>
<rect x="210" class="st1" width="10" height="10"/>
<rect x="210" y="10" class="st1" width="10" height="10"/>
<rect x="210" y="20" class="st1" width="10" height="10"/>
<rect x="210" y="30" class="st1" width="10" height="10"/>
<rect x="210" y="40" class="st1" width="10" height="10"/>
</svg>
