<svg xmlns="http://www.w3.org/2000/svg" viewBox="0 0 469.3 469.3" fill="#d31f34"><path d="M384 192c-47.1 0-85.3 38.2-85.3 85.3 0 64 85.3 170.7 85.3 170.7s85.3-106.7 85.3-170.7c0-47.1-38.2-85.3-85.3-85.3zm0 128c-23.6 0-42.7-19.1-42.7-42.7s19.1-42.7 42.7-42.7 42.7 19.1 42.7 42.7S407.5 320 384 320z"/><path d="M144.2 64H192v64h42.7V64h47.8l25.4 91.3 41.1-11.4-29.7-107c-2.6-9.2-11-15.6-20.5-15.6H128c-9.6 0-18 6.4-20.5 15.6L.8 420.9c-1.8 6.4-.5 13.3 3.6 18.6 4 5.3 10.3 8.4 17 8.4H320v-42.7H49.4L144.2 64z"/><path d="M192 298.7h42.7V384H192zm0-128h42.7V256H192z"/></svg>