<svg xmlns="http://www.w3.org/2000/svg" viewBox="0 0 512 512" fill="#d31f34"><path d="M384 192V64c0-7.1-3.5-13.7-9.4-17.7C371.1 44 267.9 3.1 263.9 1.5c-5.1-2-10.8-2-15.8 0-3.9 1.6-107.2 42.5-110.7 44.8-5.9 4-9.4 10.6-9.4 17.7v128c0 8.7 5.3 16.6 13.4 19.8l106.7 42.7c2.5 1 5.2 1.5 7.9 1.5s5.4-.5 7.9-1.5l106.7-42.7c8.1-3.3 13.4-11.1 13.4-19.8zm-149.3 11.1l-64-25.6v-82l64 25.6v82zM256 83.7L206.8 64 256 44.3 305.2 64 256 83.7zm85.3 93.8l-64 25.6v-82l64-25.6v82z"/><path d="M490.7 106.7H448c-9.2 0-17.3 5.9-20.2 14.6l-53.1 159.3-18.2-18.3c-8.3-8.3-21.8-8.3-30.2 0L283.6 305c-6 6-7.9 15.1-4.7 23l31.9 79.7c-7.1 3.4-12.1 10.6-12.1 19v64c0 11.8 9.5 21.3 21.3 21.3h149.3c11.8 0 21.3-9.6 21.3-21.3v-64c0-7.5-4.1-13.8-10-17.6l29.1-58.2c1.5-2.9 2.3-6.2 2.3-9.5V128c0-11.8-9.5-21.3-21.3-21.3zM448 469.3H341.3V448H448v21.3zm21.3-133l-34.5 69h-79l-32.1-80.2 17.6-17.6 27.6 27.6c5.2 5.2 12.8 7.4 20 5.7 7.2-1.7 13-7 15.3-14l59.1-177.4h6v186.9zm-283.6-74c-8.3-8.3-21.8-8.3-30.2 0l-18.2 18.3-53.1-159.3c-2.9-8.7-11.1-14.6-20.2-14.6H21.3C9.5 106.7 0 116.2 0 128v213.3c0 3.3.8 6.6 2.2 9.6l29.1 58.2c-5.9 3.8-10 10.1-10 17.6v64c0 11.8 9.5 21.3 21.3 21.3H192c11.8 0 21.3-9.6 21.3-21.3v-64c0-8.4-5-15.6-12.1-19l31.9-79.7c3.2-7.9 1.3-17-4.7-23l-42.7-42.7zm-15 207H64V448h106.7v21.3zm-14.5-64h-79l-34.5-69v-187h6l59.1 177.4c2.3 7 8.2 12.3 15.3 14 7.2 1.7 14.8-.4 20-5.7l27.6-27.6 17.6 17.6-32.1 80.3z"/></svg>