<svg xmlns="http://www.w3.org/2000/svg" viewBox="0 0 512 512" fill="#d31f34"><path d="M469.3 106.7c0-35.3-28.7-64-64-64s-64 28.7-64 64 28.7 64 64 64 64-28.7 64-64zm-64 21.3c-11.8 0-21.3-9.6-21.3-21.3 0-11.8 9.6-21.3 21.3-21.3 11.8 0 21.3 9.6 21.3 21.3.1 11.7-9.5 21.3-21.3 21.3zm0 42.7c-58.8 0-106.7 47.9-106.7 106.7v64c0 11.8 9.5 21.3 21.3 21.3h21.3V448c0 11.8 9.5 21.3 21.3 21.3H448c11.8 0 21.3-9.6 21.3-21.3v-85.3h21.3c11.8 0 21.3-9.6 21.3-21.3v-64c.1-58.9-47.8-106.7-106.6-106.7zm64 149.3H448c-11.8 0-21.3 9.6-21.3 21.3v85.3H384v-85.3c0-11.8-9.5-21.3-21.3-21.3h-21.3v-42.7c0-35.3 28.7-64 64-64s64 28.7 64 64l-.1 42.7zM128 341.3c11.8 0 21.3-9.6 21.3-21.3V192c0-11.8-9.5-21.3-21.3-21.3H21.3C9.5 170.7 0 180.2 0 192v128c0 11.8 9.5 21.3 21.3 21.3H128zm-85.3-128h64v85.3h-64v-85.3z"/><circle cx="213.3" cy="426.7" r="42.7"/><path d="M192.1 126.2l-19.7 236.4h-151v42.7h131.9c8.9-24.8 32.3-42.7 60.1-42.7.6 0 1.2.2 1.8.2L233 149.3h44.4v-42.7h-64c-11.2.1-20.4 8.6-21.3 19.6z"/></svg>