<svg xmlns="http://www.w3.org/2000/svg" viewBox="0 0 426.7 426.7" fill="#d31f34"><path d="M146.2 213.3h64V256h-64z"/><path d="M103.5 320h85.3v-42.7h-64v-128h128v64h42.7v-192C295.5 9.6 286 0 274.2 0h-128c-11.8 0-21.3 9.6-21.3 21.3v85.3h-21.3c-11.8 0-21.3 9.6-21.3 21.3v170.7c-.1 11.9 9.4 21.4 21.2 21.4zm64-277.3h85.3v64h-85.3v-64z"/><path d="M402.2 42.7V0h-64c-11.8 0-21.3 9.6-21.3 21.3V256c-47 0-85.3 38.3-85.3 85.3H82.2c-5.7 0-11.1 2.2-15.1 6.3l-42.7 42.7 30.2 30.2L91 384h152.4c14.8 25.4 42 42.7 73.5 42.7 47 0 85.3-38.3 85.3-85.3 0-31.4-17.3-58.7-42.7-73.5V42.7h42.7zM316.9 384c-23.6 0-42.7-19.1-42.7-42.7s19.1-42.7 42.7-42.7 42.7 19.1 42.7 42.7c-.1 23.6-19.2 42.7-42.7 42.7z"/></svg>