<svg xmlns="http://www.w3.org/2000/svg" viewBox="0 0 426.7 426.7" fill="#d31f34"><path d="M362.7 224V10.7h-85.4V224l42.7-42.7z"/><path d="M405.3 53.3H384v277.3H256c-5.7 0-11.1 2.2-15.1 6.3l-6.3 6.3v-217l21.3-21.3V53.3c-5.7 0-11.1 2.2-15.1 6.3l-27.6 27.6-27.6-27.6c-4-4-9.4-6.3-15.1-6.3H21.3C9.5 53.3 0 62.9 0 74.7V352c0 11.8 9.5 21.3 21.3 21.3h140.5l36.4 36.4c4.2 4.2 9.6 6.3 15.1 6.3s10.9-2.1 15.1-6.3l36.4-36.4h140.5c11.8 0 21.3-9.6 21.3-21.3V74.7c.1-11.8-9.5-21.4-21.3-21.4zM192 343.2l-6.3-6.3c-4-4-9.4-6.3-15.1-6.3h-128V96h119.2l30.2 30.2v217z"/><path d="M106.7 117.3h64V160h-64zm-42.7 64h106.7V224H64zm0 64h106.7V288H64z"/></svg>