<svg xmlns="http://www.w3.org/2000/svg" viewBox="0 0 100 125" fill="#d31f34"><path d="M48.9 1c-1.7 0-3.2 1.3-3.4 3L44 14.4h-4.1c-1.6 0-3.1 1.2-3.4 2.8L35 24.4h-4.7c-1.7 0-3.1 1.2-3.4 2.9l-2.5 14.2L46.2 31c2.2-1.1 4.7-1.1 6.9 0l22.4 10.8L73 27.3c-.3-1.7-1.7-2.9-3.4-2.9h-4.7l-1.5-7.2c-.3-1.6-1.7-2.8-3.4-2.8h-4L54.5 4c-.2-1.7-1.7-3-3.4-3h-2.2z"/><path d="M12.8 61l8.6 18.3c3.5-2.4 7.6-3.6 11.8-3.5 4.5-.1 8.8 1.3 12.4 3.9 1.7 1.1 2.4 1.6 4.3 1.6h.1c2 0 2.7-.5 4.3-1.5 3.6-2.6 8-4 12.4-3.9 4.2-.1 8.3 1.2 11.8 3.5L87.2 61c1.1-2.2.1-4.9-2.1-6L51.8 39c-1.1-.5-2.4-.5-3.5 0L14.9 55c-2.2 1.1-3.2 3.8-2.1 6zM8.2 87.5c-2.7 0-4.8 2.2-4.8 4.8 0 .4.1.9.2 1.3.4 1.4 1.3 2.5 2.6 3.1 3.2 1.5 6.7 2.3 10.3 2.3 5 .1 10-1.5 14.1-4.4 1.6-1 1.6-1.1 2.7-1.1s1.2 0 2.8 1.1c4.1 2.9 9 4.5 14 4.4 5 .1 10-1.5 14.1-4.4 1.6-1 1.6-1.1 2.7-1.1s1.2 0 2.8 1.1c7.2 5 16.4 5.8 24.4 2.2 2.4-1.2 3.4-4.1 2.3-6.5-.1-.2-.2-.4-.3-.5-.9-1.4-2.4-2.2-4.1-2.2-.7 0-1.5.1-2.2.4-1.9.9-4 1.3-6.1 1.3-3.2 0-6.2-1-8.8-2.8-4.8-3.5-11.3-3.5-16.1 0-2.5 1.9-5.6 2.9-8.7 2.8H50c-3.1 0-6.2-1-8.7-2.8-2.3-1.8-5.1-2.7-8-2.6-2.9-.1-5.7.9-8 2.6-2.5 1.9-5.6 2.9-8.7 2.8-2.1.1-4.2-.4-6.1-1.3-.9-.3-1.6-.5-2.3-.5z"/></svg>