<svg xmlns="http://www.w3.org/2000/svg" xmlns:xlink="http://www.w3.org/1999/xlink" viewBox="0 0 220 50" width="220" height="50"><style>.st0{display:none}.st1{fill:#fff}.sq{background:#fff}.sq1{opacity:1}.sq2{opacity:.8}</style><g id="N3t7bk.tif" class="st0"><image width="482" height="223" id="Layer_1_1_" xlink:href="../../gcargo/svg/4EB413056E1FC0B0.png" transform="translate(-293.464 -296.93) scale(2.9996)" overflow="visible"/></g><path class="st1" d="M1 1h218v48H1z"/><path class="st2" d="M218 2v46H2V2h216m2-2H0v50h220V0z"/><path class="sq sq1" d="M0 0h10v10H0z"/><path class="sq sq2" d="M0 10h10v10H0z"/><path class="st1" d="M0 20h10v10H0zm0 10h10v10H0zm0 10h10v10H0zM10 0h10v10H10zm0 10h10v10H10zm0 10h10v10H10zm0 10h10v10H10zm0 10h10v10H10zM20 0h10v10H20zm0 10h10v10H20zm0 10h10v10H20zm0 10h10v10H20zm0 10h10v10H20zM30 0h10v10H30zm0 10h10v10H30zm0 10h10v10H30zm0 10h10v10H30zm0 10h10v10H30zM40 0h10v10H40zm0 10h10v10H40zm0 10h10v10H40zm0 10h10v10H40zm0 10h10v10H40zM50 0h10v10H50zm0 10h10v10H50zm0 10h10v10H50zm0 10h10v10H50zm0 10h10v10H50zM60 0h10v10H60zm0 10h10v10H60zm0 10h10v10H60zm0 10h10v10H60zm0 10h10v10H60zM70 0h10v10H70zm0 10h10v10H70zm0 10h10v10H70zm0 10h10v10H70zm0 10h10v10H70zM80 0h10v10H80zm0 10h10v10H80zm0 10h10v10H80zm0 10h10v10H80zm0 10h10v10H80zM90 0h10v10H90zm0 10h10v10H90zm0 10h10v10H90zm0 10h10v10H90zm0 10h10v10H90zm10-40h10v10h-10zm0 10h10v10h-10zm0 10h10v10h-10zm0 10h10v10h-10zm0 10h10v10h-10zm10-40h10v10h-10zm0 10h10v10h-10zm0 10h10v10h-10zm0 10h10v10h-10zm0 10h10v10h-10zm10-40h10v10h-10zm0 10h10v10h-10zm0 10h10v10h-10zm0 10h10v10h-10zm0 10h10v10h-10zm10-40h10v10h-10zm0 10h10v10h-10zm0 10h10v10h-10zm0 10h10v10h-10zm0 10h10v10h-10zm10-40h10v10h-10zm0 10h10v10h-10zm0 10h10v10h-10zm0 10h10v10h-10zm0 10h10v10h-10zm10-40h10v10h-10zm0 10h10v10h-10zm0 10h10v10h-10zm0 10h10v10h-10zm0 10h10v10h-10zm10-40h10v10h-10zm0 10h10v10h-10zm0 10h10v10h-10zm0 10h10v10h-10zm0 10h10v10h-10zm10-40h10v10h-10zm0 10h10v10h-10zm0 10h10v10h-10zm0 10h10v10h-10zm0 10h10v10h-10zm10-40h10v10h-10zm0 10h10v10h-10zm0 10h10v10h-10zm0 10h10v10h-10zm0 10h10v10h-10zm10-40h10v10h-10zm0 10h10v10h-10zm0 10h10v10h-10zm0 10h10v10h-10zm0 10h10v10h-10zm10-40h10v10h-10zm0 10h10v10h-10zm0 10h10v10h-10zm0 10h10v10h-10zm0 10h10v10h-10zm10-40h10v10h-10zm0 10h10v10h-10zm0 10h10v10h-10zm0 10h10v10h-10zm0 10h10v10h-10z"/></svg>